<svg id="Layer_1" data-name="Layer 1" xmlns="http://www.w3.org/2000/svg" viewBox="0 0 422.6 421.83"><defs><style>.cls-1{fill:#548ed7;}</style></defs><path class="cls-1" d="M-1062.44,1177.2c14.62-1.51,28.11-7.08,41.43-12.58,43.88-18.11,88-19,131.55-.63,50.53,21.39,100.31,21.8,150.6.33,8.27-3.53,16.91-6.21,25.4-9.23,12.61-4.48,12.65-4.46,12.65,8.55q0,112.35,0,224.7c0,17.65-.41,35.31.18,52.93.27,7.91-1.93,12-9.79,14.49-14.21,4.39-28.13,9.74-42.06,15-41.4,15.56-82.61,15.62-123.9-.63-26-10.23-52.34-18.8-80.9-17.86-12.63.42-25.1,1.7-37.12,5.29-7.26,2.17-8.75.12-8.57-6.74.37-14.1.51-28.24,0-42.34-.31-7.52,3.09-10.24,9.68-11.91,32.58-8.25,64.49-5.82,95.93,5.43,22.11,7.91,43.9,16.7,67.63,19.13,21,2.16,41.38-.26,61.63-5.8,5.23-1.43,6.77-4,6.76-9.07q-.18-82.93,0-165.88c0-6.3-2-7-7.65-5.39-38,11-75.45,7.77-111.53-7.54-50.13-21.27-99.6-20.9-149.37,1-10.32,4.54-21.65,6.75-32.52,10Z" transform="translate(1123.19 -1135.68)"/><path class="cls-1" d="M-1062.44,1177.2v61.22q-.13,142.26-.18,284.5c0,9.86-1.92,18.61-9,25.77-16.06,16.12-43.79,9.12-49.93-12.79a52,52,0,0,1-1.54-13.93q-.12-175.18,0-350.35a57.08,57.08,0,0,1,1.25-12.8c3.37-14.45,17-24.33,31.25-23a30.54,30.54,0,0,1,27.8,27.32C-1062.42,1167.78-1062.56,1172.5-1062.44,1177.2Z" transform="translate(1123.19 -1135.68)"/></svg>